<!--?xml version="1.0" standalone="no"?-->
              <svg id="sw-js-blob-svg" viewBox="0 0 100 100" xmlns="http://www.w3.org/2000/svg" version="1.1">
                    <defs> 
                        <linearGradient id="sw-gradient" x1="0" x2="1" y1="1" y2="0">
                            <stop id="stop1" stop-color="rgba(93, 188, 188, 1)" offset="0%"></stop>
                            <stop id="stop2" stop-color="rgba(93, 188, 188, 1)" offset="100%"></stop>
                        </linearGradient>
                    </defs>
                <path fill="url(#sw-gradient)" d="M11.1,-13.3C13.8,-11,14.9,-6.9,14.2,-3.6C13.6,-0.2,11.2,2.5,9.6,5.8C8,9.2,7.2,13.3,3.8,17.6C0.5,21.8,-5.3,26.2,-8,24.2C-10.6,22.2,-10.1,13.9,-12.9,8C-15.8,2.1,-21.9,-1.4,-25.2,-8.2C-28.5,-15,-29,-25.1,-24.3,-27C-19.7,-28.8,-9.8,-22.5,-2.8,-19.2C4.2,-15.8,8.5,-15.5,11.1,-13.3Z" width="100%" height="100%" transform="translate(50 50)" stroke-width="0" style="transition: all 0.3s ease 0s;"></path>
              </svg>